<?xml version="1.0" encoding="utf-8"?>
<!-- Generator: Adobe Illustrator 28.2.0, SVG Export Plug-In . SVG Version: 6.00 Build 0)  -->
<svg version="1.1" id="Layer_1" xmlns="http://www.w3.org/2000/svg" xmlns:xlink="http://www.w3.org/1999/xlink" x="0px" y="0px"
	 viewBox="0 0 31 29.1" style="enable-background:new 0 0 31 29.1;" xml:space="preserve">
<style type="text/css">
	.st0{fill:#231F20;}
</style>
<path class="st0" d="M25.3,23.9c-0.1,0-0.2,0-0.3,0c-0.5-0.2-0.8-0.7-0.7-1.2l0.5-1.7H23l0,0L8.3,20.7c-0.5,0-0.9-0.4-1-0.9L5.7,6.2
	v0L5.3,2.9L0.8,2C0.3,1.9-0.1,1.4,0,0.8c0,0,0,0,0,0C0.1,0.3,0.7-0.1,1.2,0c0,0,0,0,0,0l5.2,1c0.4,0.1,0.8,0.4,0.8,0.9L7.6,5
	l12.1,0.9l0,0l10.3,0.8c0.3,0,0.6,0.2,0.8,0.4C31,7.4,31,7.7,31,8l-3.7,11.9c0,0.1,0,0.2,0,0.3l-1,3C26.1,23.6,25.7,23.9,25.3,23.9z
	 M24.2,18.9h1.3l3.2-10.2l-3.2-0.3L24.2,18.9z M21.7,18.9h0.4l1.4-10.6l-2.9-0.2l-0.9,10.8L21.7,18.9z M16.4,18.9h1.3L18.6,8
	l-2.9-0.1L16.4,18.9z M11.4,7.5l1.6,11.2h1.4L13.7,7.5L11.4,7.5z M9.2,18.7h1.7L9.4,7.3L7.9,7.2L9.2,18.7z"/>
<path class="st0" d="M25.3,23.9h-19c-0.6,0-1-0.4-1-1s0.4-1,1-1h19c0.6,0,1,0.4,1,1S25.8,23.9,25.3,23.9z"/>
<path class="st0" d="M10.3,29.1c-1.2,0-2.2-1-2.2-2.2c0-1.2,1-2.2,2.2-2.2c1.2,0,2.2,1,2.2,2.2S11.5,29.1,10.3,29.1
	C10.3,29.1,10.3,29.1,10.3,29.1z M10.3,25.6c-0.7,0-1.2,0.6-1.2,1.2c0,0.7,0.6,1.2,1.2,1.2c0.7,0,1.2-0.6,1.2-1.2
	S10.9,25.6,10.3,25.6C10.3,25.6,10.3,25.6,10.3,25.6z"/>
<path class="st0" d="M23.6,29.1c-1.2,0-2.2-1-2.2-2.2s1-2.2,2.2-2.2s2.2,1,2.2,2.2S24.8,29.1,23.6,29.1L23.6,29.1z M23.6,25.6
	c-0.7,0-1.2,0.6-1.2,1.2s0.6,1.2,1.2,1.2c0.7,0,1.2-0.6,1.2-1.2C24.8,26.2,24.2,25.6,23.6,25.6z"/>
</svg>
